<?xml version="1.0" encoding="UTF-8"?>
<svg id="SVGRoot" width="515.3" height="565.58" version="1.1" viewBox="0 0 515.29821 565.57898" xmlns="http://www.w3.org/2000/svg" xmlns:cc="http://creativecommons.org/ns#" xmlns:dc="http://purl.org/dc/elements/1.1/" xmlns:rdf="http://www.w3.org/1999/02/22-rdf-syntax-ns#"><metadata><rdf:RDF><cc:Work rdf:about=""><dc:format>image/svg+xml</dc:format><dc:type rdf:resource="http://purl.org/dc/dcmitype/StillImage"/><dc:title/></cc:Work></rdf:RDF></metadata><g stroke-width="1.1813"><path d="m15.299 539.94h500v25.64h-500z"/><path d="m35.019 490.63h461.54v35.504h-461.54z"/><path d="m32.059 86.293h459.07v49.31h-459.07z"/><path d="m35.019 71.499h453.16l13.806-15.286-240.38-56.213-240.38 56.213z"/><path d="m98.279 291.7c-0.39574-24.217-1.023-48.434-1.9716-72.634-0.89306-22.801-2.3626-45.58-3.4718-68.375-0.0957-1.968-0.92969-2.3932-2.5622-2.75-6.7251-1.466-13.486-2.1547-20.275-2.1653-6.7889 0.0142-13.549 0.69928-20.275 2.1653-1.6326 0.35552-2.4666 0.78206-2.5622 2.75-1.1092 22.794-2.5788 45.573-3.4718 68.375-0.94858 24.2-1.577 48.418-1.9716 72.634-0.27996 17.162-0.10632 34.337 0.16539 51.504 0.30005 19.044 0.72295 38.092 1.4943 57.122 0.82692 20.422 2.1051 40.828 3.2261 61.237 0.215 3.9113 0.61546 7.812 0.92142 11.613 7.5355 1.9609 15.007 3.0938 22.474 3.1871 7.467-0.0936 14.938-1.2262 22.474-3.1871 0.30595-3.8014 0.70523-7.7032 0.92023-11.613 1.1211-20.409 2.3992-40.815 3.2261-61.237 0.77139-19.03 1.1943-38.078 1.4943-57.122 0.27053-17.167 0.44535-34.342 0.16421-51.504z"/><path d="m223.27 291.7c-0.39573-24.217-1.0242-48.434-1.9728-72.634-0.89425-22.801-2.3638-45.58-3.4718-68.375-0.0957-1.968-0.9285-2.3932-2.5622-2.75-6.724-1.466-13.486-2.1547-20.273-2.1653-6.7889 0.0142-13.55 0.69928-20.275 2.1653-1.6326 0.35552-2.4666 0.78206-2.5622 2.75-1.1081 22.794-2.5788 45.573-3.4718 68.375-0.94858 24.2-1.577 48.418-1.9716 72.634-0.27997 17.162-0.10632 34.337 0.16421 51.504 0.30123 19.044 0.72295 38.092 1.4943 57.122 0.82809 20.422 2.1051 40.828 3.2261 61.237 0.215 3.9113 0.61546 7.812 0.92023 11.613 7.5367 1.9609 15.008 3.0938 22.474 3.1871 7.467-0.0936 14.938-1.2262 22.474-3.1871 0.30479-3.8014 0.70525-7.7032 0.92025-11.613 1.1199-20.409 2.398-40.815 3.2249-61.237 0.77139-19.03 1.1943-38.078 1.4955-57.122 0.27288-17.167 0.44653-34.342 0.16656-51.504z"/><path d="m368.24 291.7c-0.39578-24.217-1.023-48.434-1.9728-72.634-0.89305-22.801-2.3626-45.58-3.4706-68.375-0.0964-1.968-0.92977-2.3932-2.5635-2.75-6.7239-1.466-13.484-2.1547-20.273-2.1653-6.789 0.0142-13.55 0.69928-20.275 2.1653-1.6326 0.35552-2.4666 0.78206-2.5622 2.75-1.1081 22.794-2.5788 45.573-3.4707 68.375-0.94976 24.2-1.577 48.418-1.9728 72.634-0.27997 17.162-0.10632 34.337 0.16538 51.504 0.30123 19.044 0.72297 38.092 1.4944 57.122 0.82809 20.422 2.1051 40.828 3.2261 61.237 0.21617 3.9113 0.61545 7.812 0.92023 11.613 7.5367 1.9609 15.007 3.0938 22.474 3.1871 7.4669-0.0936 14.937-1.2262 22.474-3.1871 0.30477-3.8014 0.70523-7.7032 0.92027-11.613 1.121-20.409 2.3981-40.815 3.2261-61.237 0.7703-19.03 1.1932-38.078 1.4944-57.122 0.27174-17.167 0.44539-34.342 0.16543-51.504z"/><path d="m490.27 291.7c-0.39578-24.217-1.023-48.434-1.9717-72.634-0.89419-22.801-2.3638-45.58-3.4719-68.375-0.0964-1.968-0.92963-2.3932-2.5634-2.75-6.7227-1.466-13.485-2.1547-20.274-2.1653-6.7876 0.0142-13.55 0.69928-20.273 2.1653-1.6337 0.35552-2.4665 0.78206-2.5622 2.75-1.1092 22.794-2.5801 45.573-3.4719 68.375-0.94862 24.2-1.577 48.418-1.9728 72.634-0.27997 17.162-0.10632 34.337 0.16543 51.504 0.30122 19.044 0.72295 38.092 1.4955 57.122 0.82686 20.422 2.1051 40.828 3.2249 61.237 0.21618 3.9113 0.6155 7.812 0.92028 11.613 7.5378 1.9609 15.008 3.0938 22.474 3.1871 7.4671-0.0936 14.939-1.2262 22.474-3.1871 0.30591-3.8014 0.70523-7.7032 0.92027-11.613 1.121-20.409 2.3992-40.815 3.2261-61.237 0.77143-19.03 1.1932-38.078 1.4944-57.122 0.27174-17.167 0.44653-34.342 0.16543-51.504z"/></g><path d="m-9.1131e-4 539.98h15v25.6h-15z" fill="none"/></svg>
